<?xml version="1.0" encoding="UTF-8"?>
<svg version="1.1" xmlns="http://www.w3.org/2000/svg" width="124" height="103">
<path d="M0 0 C40.92 0 81.84 0 124 0 C124 33.99 124 67.98 124 103 C83.08 103 42.16 103 0 103 C0 69.01 0 35.02 0 0 Z " fill="#0458FB" transform="translate(0,0)"/>
<path d="M0 0 C40.92 0 81.84 0 124 0 C124 33.99 124 67.98 124 103 C83.08 103 42.16 103 0 103 C0 69.01 0 35.02 0 0 Z M26.6015625 19.58203125 C19.20528928 29.19168735 16.2599536 38.82027871 16.4375 50.875 C16.44773193 51.9256665 16.45796387 52.97633301 16.46850586 54.05883789 C16.84250233 67.7547368 21.52635197 77.45902181 31.16796875 87.1875 C35.72942263 91.45846542 40.1695204 94.73137354 46 97 C47.12148438 97.44666016 47.12148438 97.44666016 48.265625 97.90234375 C54.94273115 100.2393309 61.97254918 101.04186044 69 100 C71.4294516 96.3558226 71.16179575 94.28758728 71 90 C71.64324219 90.05800781 72.28648438 90.11601563 72.94921875 90.17578125 C83.85982577 90.72053338 93.67512844 87.07954685 102.00390625 80.00390625 C111.10604783 70.86613985 115.34227989 60.64623441 115.4375 47.875 C115.25344966 35.3248259 111.29981068 26.48175762 102.6875 17.25 C98.91183634 13.65729801 94.72885658 11.15417492 90 9 C88.90300781 8.46632813 87.80601563 7.93265625 86.67578125 7.3828125 C80.88570356 5.26138093 74.78538492 5.5527646 68.70117188 5.60888672 C66.63604112 5.62491431 64.57288236 5.60901027 62.5078125 5.58984375 C48.25531877 5.56455247 36.60470344 8.81317757 26.6015625 19.58203125 Z " fill="#F9FBFD" transform="translate(0,0)"/>
<path d="M0 0 C2.4375 1.625 2.4375 1.625 4 4 C4.5625 6.9375 4.5625 6.9375 4 10 C1.70985284 13.0099077 0.20864386 14.69783903 -3.5 15.625 C-7.25999106 14.68500224 -8.7473603 13.11394311 -11 10 C-11 6.45638757 -10.65850044 4.13408409 -8.875 1.0625 C-5.81547541 -0.6712306 -3.43182475 -0.42145216 0 0 Z " fill="#EDF5FC" transform="translate(52,41)"/>
<path d="M0 0 C2.5 1.5625 2.5 1.5625 4 4 C3.93913078 7.46954545 3.6274029 9.91947278 1.875 12.9375 C-1.14771101 14.65036957 -3.60585305 14.35727863 -7 14 C-9.4375 12.9375 -9.4375 12.9375 -11 11 C-11.56988508 7.08204004 -11.59460908 4.92759017 -9.4375 1.5625 C-6.05782196 -0.60396028 -3.94016013 -0.56288002 0 0 Z " fill="#F2F9FD" transform="translate(87,41)"/>
<path d="M0 0 C2.97 0 5.94 0 9 0 C9 0.33 9 0.66 9 1 C6.36 1 3.72 1 1 1 C1.495 4.96 1.495 4.96 2 9 C2.9590625 9.1546875 2.9590625 9.1546875 3.9375 9.3125 C4.618125 9.539375 5.29875 9.76625 6 10 C6.495 11.485 6.495 11.485 7 13 C-5.54 13 -18.08 13 -31 13 C-29.68 12.67 -28.36 12.34 -27 12 C-27.33 10.02 -27.66 8.04 -28 6 C-26.58318366 6.31182069 -25.16655349 6.62448737 -23.75 6.9375 C-22.56664062 7.19853516 -22.56664062 7.19853516 -21.359375 7.46484375 C-19.93738474 7.78738128 -18.52161674 8.14351498 -17.125 8.5625 C-14.14774397 9.17546448 -11.28542529 9.09285425 -8.25 9.0625 C-7.07953125 9.05347656 -5.9090625 9.04445313 -4.703125 9.03515625 C-3.81109375 9.02355469 -2.9190625 9.01195313 -2 9 C-1.34 6.03 -0.68 3.06 0 0 Z " fill="#E8EAE7" transform="translate(71,90)"/>
<path d="M0 0 C2.97 0 5.94 0 9 0 C9 0.33 9 0.66 9 1 C6.36 1 3.72 1 1 1 C1.12375 2.299375 1.2475 3.59875 1.375 4.9375 C1.44460937 5.66839844 1.51421875 6.39929688 1.5859375 7.15234375 C1.72257812 7.76207031 1.85921875 8.37179688 2 9 C2.66 9.33 3.32 9.66 4 10 C2.35 10 0.7 10 -1 10 C-1 10.66 -1 11.32 -1 12 C-2.91635217 12.05423638 -4.83314925 12.09289963 -6.75 12.125 C-8.35101563 12.15980469 -8.35101563 12.15980469 -9.984375 12.1953125 C-12.92470106 12.00487687 -14.52361878 11.52670104 -17 10 C-14.11584117 8.55792059 -11.58278472 8.90605113 -8.375 8.9375 C-7.18648437 8.94652344 -5.99796875 8.95554687 -4.7734375 8.96484375 C-3.85820313 8.97644531 -2.94296875 8.98804687 -2 9 C-1.34 6.03 -0.68 3.06 0 0 Z " fill="#C7E1FB" transform="translate(71,90)"/>
<path d="M0 0 C2.31 0 4.62 0 7 0 C7.33 0.99 7.66 1.98 8 3 C-1.24 3 -10.48 3 -20 3 C-20 2.67 -20 2.34 -20 2 C-13.16920852 0.81774763 -6.87368733 1.25535054 0 2 C0 1.34 0 0.68 0 0 Z " fill="#E4E6E5" transform="translate(70,100)"/>
<path d="M0 0 C0.66 0.66 1.32 1.32 2 2 C0.9275 2.12375 -0.145 2.2475 -1.25 2.375 C-4.37863615 2.89643936 -6.33480424 3.40088254 -9 5 C-9 6.98 -9 8.96 -9 11 C-9.66 10.67 -10.32 10.34 -11 10 C-10.40550688 3.69837297 -10.40550688 3.69837297 -8.875 1.0625 C-5.90174077 -0.6223469 -3.33330906 -0.3030281 0 0 Z " fill="#CCE7FA" transform="translate(52,41)"/>
<path d="M0 0 C0.33 0.66 0.66 1.32 1 2 C-1.31 1.67 -3.62 1.34 -6 1 C-6.4640625 1.928125 -6.4640625 1.928125 -6.9375 2.875 C-7.625 4.25 -8.3125 5.625 -9 7 C-8.71887936 9.00800456 -8.38932033 11.01014051 -8 13 C-8.99 12.34 -9.98 11.68 -11 11 C-11.50235639 7.12467931 -11.57171759 4.89187945 -9.4375 1.5625 C-6.18129203 -0.5248128 -3.79004984 -0.2915423 0 0 Z " fill="#C7E2FB" transform="translate(87,41)"/>
<path d="M0 0 C0.66 0.33 1.32 0.66 2 1 C-3.42819129 7.25064452 -9.04518637 8.02594119 -17 9 C-13.61861957 6.74574638 -10.26310117 5.50978279 -6.47265625 4.09765625 C-3.99574811 2.99811251 -2.09462163 1.70582875 0 0 Z " fill="#C9E3FC" transform="translate(99,81)"/>
<path d="M0 0 C1.44010481 0.25662245 2.8770687 0.53090821 4.3125 0.8125 C5.11300781 0.96332031 5.91351563 1.11414063 6.73828125 1.26953125 C9 2 9 2 12 5 C8.37 5 4.74 5 1 5 C0.67 3.35 0.34 1.7 0 0 Z " fill="#DDEBF9" transform="translate(43,96)"/>
<path d="M0 0 C1.98 0 3.96 0 6 0 C2.71195019 2.91227269 0.40114397 4.49701212 -4 5 C-3.34 4.67 -2.68 4.34 -2 4 C-2 3.34 -2 2.68 -2 2 C-1.34 2 -0.68 2 0 2 C0 1.34 0 0.68 0 0 Z " fill="#1C64E6" transform="translate(92,82)"/>
<path d="M0 0 C1.65 0 3.3 0 5 0 C3.63016497 3.16115776 3.0109362 3.9927092 0 6 C0 4.02 0 2.04 0 0 Z " fill="#1D69EB" transform="translate(100,75)"/>
<path d="M0 0 C1.1725131 0.95117134 2.33787015 1.91117009 3.5 2.875 C4.47453125 3.67550781 4.47453125 3.67550781 5.46875 4.4921875 C5.9740625 4.98976563 6.479375 5.48734375 7 6 C7 6.66 7 7.32 7 8 C5.68 7.67 4.36 7.34 3 7 C3 6.01 3 5.02 3 4 C2.01 3.67 1.02 3.34 0 3 C0 2.01 0 1.02 0 0 Z " fill="#1664E4" transform="translate(101,17)"/>
<path d="M0 0 C0.66 0.33 1.32 0.66 2 1 C0.515 3.475 0.515 3.475 -1 6 C-2.32 5.34 -3.64 4.68 -5 4 C-3.35 2.68 -1.7 1.36 0 0 Z " fill="#1860EA" transform="translate(36,12)"/>
</svg>
